<mxfile host="65bd71144e">
    <diagram id="Hp4dVfdLVx2DITK1ITba" name="Página-1">
        <mxGraphModel dx="614" dy="1223" grid="1" gridSize="10" guides="1" tooltips="1" connect="1" arrows="1" fold="1" page="0" pageScale="1" pageWidth="827" pageHeight="1169" math="0" shadow="0">
            <root>
                <mxCell id="0"/>
                <mxCell id="1" parent="0"/>
                <mxCell id="2" value="WORKFLOW" style="shape=table;childLayout=tableLayout;startSize=40;collapsible=0;recursiveResize=0;expand=0;fontStyle=1;swimlaneLine=1;" parent="1" vertex="1">
                    <mxGeometry x="630" y="-120" width="3540" height="536" as="geometry"/>
                </mxCell>
                <mxCell id="3" value="Gestor" style="shape=tableRow;horizontal=0;startSize=40;swimlaneHead=0;swimlaneBody=0;top=0;left=0;bottom=0;right=0;dropTarget=0;fillColor=none;collapsible=0;recursiveResize=0;expand=0;fontStyle=1;" parent="2" vertex="1">
                    <mxGeometry y="40" width="3540" height="136" as="geometry"/>
                </mxCell>
                <mxCell id="15" value="Planning" style="swimlane;swimlaneHead=0;swimlaneBody=0;fontStyle=0;connectable=0;fillColor=none;startSize=40;collapsible=0;recursiveResize=0;expand=0;fontStyle=1;" parent="3" vertex="1">
                    <mxGeometry x="40" width="1020" height="136" as="geometry">
                        <mxRectangle width="1020" height="136" as="alternateBounds"/>
                    </mxGeometry>
                </mxCell>
                <mxCell id="39" style="edgeStyle=none;html=1;exitX=1;exitY=0.5;exitDx=0;exitDy=0;entryX=0;entryY=0.5;entryDx=0;entryDy=0;" parent="15" edge="1">
                    <mxGeometry relative="1" as="geometry">
                        <mxPoint x="80" y="80" as="sourcePoint"/>
                        <mxPoint x="116" y="80" as="targetPoint"/>
                    </mxGeometry>
                </mxCell>
                <mxCell id="44" style="edgeStyle=none;html=1;endArrow=classic;endFill=1;" parent="15" edge="1">
                    <mxGeometry relative="1" as="geometry">
                        <mxPoint x="260" y="80" as="targetPoint"/>
                        <mxPoint x="206" y="80" as="sourcePoint"/>
                    </mxGeometry>
                </mxCell>
                <mxCell id="63" style="edgeStyle=none;html=1;strokeColor=default;strokeWidth=1;endArrow=classic;endFill=1;" parent="15" edge="1">
                    <mxGeometry relative="1" as="geometry">
                        <mxPoint x="520" y="80.10049833887047" as="sourcePoint"/>
                        <mxPoint x="580" y="79.90116279069775" as="targetPoint"/>
                    </mxGeometry>
                </mxCell>
                <mxCell id="181" value="" style="strokeWidth=2;html=1;shape=mxgraph.flowchart.start_1;whiteSpace=wrap;" parent="15" vertex="1">
                    <mxGeometry x="16" y="60.8" width="64" height="39.2" as="geometry"/>
                </mxCell>
                <mxCell id="182" value="Inicio" style="text;html=1;strokeColor=none;fillColor=none;align=center;verticalAlign=middle;whiteSpace=wrap;rounded=0;" parent="15" vertex="1">
                    <mxGeometry x="18" y="65" width="60" height="30" as="geometry"/>
                </mxCell>
                <mxCell id="183" value="" style="rounded=1;whiteSpace=wrap;html=1;" parent="15" vertex="1">
                    <mxGeometry x="116" y="54.8" width="94" height="275.2" as="geometry"/>
                </mxCell>
                <mxCell id="184" value="Historias de Usuario" style="text;html=1;strokeColor=none;fillColor=none;align=center;verticalAlign=middle;whiteSpace=wrap;rounded=0;" parent="15" vertex="1">
                    <mxGeometry x="133" y="64.6" width="60" height="245.4" as="geometry"/>
                </mxCell>
                <mxCell id="191" value="" style="html=1;verticalLabelPosition=bottom;align=center;labelBackgroundColor=#ffffff;verticalAlign=top;strokeWidth=2;strokeColor=#0080F0;shadow=0;dashed=0;shape=mxgraph.ios7.icons.document;" parent="15" vertex="1">
                    <mxGeometry x="270" y="59.2" width="30" height="40" as="geometry"/>
                </mxCell>
                <mxCell id="192" value="" style="rounded=1;whiteSpace=wrap;html=1;" parent="15" vertex="1">
                    <mxGeometry x="420" y="54.4" width="94" height="275.6" as="geometry"/>
                </mxCell>
                <mxCell id="193" value="Release Plan" style="text;html=1;strokeColor=none;fillColor=none;align=center;verticalAlign=middle;whiteSpace=wrap;rounded=0;" parent="15" vertex="1">
                    <mxGeometry x="437" y="64.2" width="60" height="255.8" as="geometry"/>
                </mxCell>
                <mxCell id="194" value="" style="html=1;verticalLabelPosition=bottom;align=center;labelBackgroundColor=#ffffff;verticalAlign=top;strokeWidth=2;strokeColor=#0080F0;shadow=0;dashed=0;shape=mxgraph.ios7.icons.document;" parent="15" vertex="1">
                    <mxGeometry x="590" y="59.2" width="30" height="40" as="geometry"/>
                </mxCell>
                <mxCell id="271" value="" style="endArrow=classic;html=1;" parent="15" edge="1">
                    <mxGeometry width="50" height="50" relative="1" as="geometry">
                        <mxPoint x="380" y="80" as="sourcePoint"/>
                        <mxPoint x="410" y="80" as="targetPoint"/>
                    </mxGeometry>
                </mxCell>
                <mxCell id="301" value="- Historias de usuario&lt;br&gt;- Tarjetas de tareas" style="text;html=1;strokeColor=none;fillColor=none;align=center;verticalAlign=middle;whiteSpace=wrap;rounded=0;" parent="15" vertex="1">
                    <mxGeometry x="320" y="64.19999999999999" width="60" height="30" as="geometry"/>
                </mxCell>
                <mxCell id="337" value="" style="html=1;verticalLabelPosition=bottom;align=center;labelBackgroundColor=#ffffff;verticalAlign=top;strokeWidth=2;strokeColor=#0080F0;shadow=0;dashed=0;shape=mxgraph.ios7.icons.document;" vertex="1" parent="15">
                    <mxGeometry x="840" y="60.400000000000006" width="30" height="40" as="geometry"/>
                </mxCell>
                <mxCell id="4" value="Designing" style="swimlane;swimlaneHead=0;swimlaneBody=0;fontStyle=0;connectable=0;fillColor=none;startSize=40;collapsible=0;recursiveResize=0;expand=0;fontStyle=1;" parent="3" vertex="1">
                    <mxGeometry x="1060" width="750" height="136" as="geometry">
                        <mxRectangle width="750" height="136" as="alternateBounds"/>
                    </mxGeometry>
                </mxCell>
                <mxCell id="5" value="" style="swimlane;swimlaneHead=0;swimlaneBody=0;fontStyle=0;connectable=0;fillColor=none;startSize=40;collapsible=0;recursiveResize=0;expand=0;fontStyle=1;" parent="3" vertex="1">
                    <mxGeometry x="1810" width="820" height="136" as="geometry">
                        <mxRectangle width="820" height="136" as="alternateBounds"/>
                    </mxGeometry>
                </mxCell>
                <mxCell id="6" value="Testing" style="swimlane;swimlaneHead=0;swimlaneBody=0;fontStyle=0;connectable=0;fillColor=none;startSize=40;collapsible=0;recursiveResize=0;expand=0;fontStyle=1;" parent="3" vertex="1">
                    <mxGeometry x="2630" width="910" height="136" as="geometry">
                        <mxRectangle width="910" height="136" as="alternateBounds"/>
                    </mxGeometry>
                </mxCell>
                <mxCell id="7" value="Cliente" style="shape=tableRow;horizontal=0;startSize=40;swimlaneHead=0;swimlaneBody=0;top=0;left=0;bottom=0;right=0;dropTarget=0;fillColor=none;collapsible=0;recursiveResize=0;expand=0;fontStyle=1;" parent="2" vertex="1">
                    <mxGeometry y="176" width="3540" height="118" as="geometry"/>
                </mxCell>
                <mxCell id="16" value="" style="swimlane;swimlaneHead=0;swimlaneBody=0;fontStyle=0;connectable=0;fillColor=none;startSize=0;collapsible=0;recursiveResize=0;expand=0;fontStyle=1;" parent="7" vertex="1">
                    <mxGeometry x="40" width="1020" height="118" as="geometry">
                        <mxRectangle width="1020" height="118" as="alternateBounds"/>
                    </mxGeometry>
                </mxCell>
                <mxCell id="333" style="edgeStyle=none;html=1;endArrow=classic;endFill=1;" edge="1" parent="16">
                    <mxGeometry relative="1" as="geometry">
                        <mxPoint x="824" y="-55.8" as="targetPoint"/>
                        <mxPoint x="770" y="-55.8" as="sourcePoint"/>
                    </mxGeometry>
                </mxCell>
                <mxCell id="334" value="" style="rounded=1;whiteSpace=wrap;html=1;" vertex="1" parent="16">
                    <mxGeometry x="680" y="-81" width="94" height="275.2" as="geometry"/>
                </mxCell>
                <mxCell id="335" value="Plan de iteración" style="text;html=1;strokeColor=none;fillColor=none;align=center;verticalAlign=middle;whiteSpace=wrap;rounded=0;" vertex="1" parent="16">
                    <mxGeometry x="697" y="-71.2" width="60" height="245.4" as="geometry"/>
                </mxCell>
                <mxCell id="8" value="" style="swimlane;swimlaneHead=0;swimlaneBody=0;fontStyle=0;connectable=0;fillColor=none;startSize=0;collapsible=0;recursiveResize=0;expand=0;fontStyle=1;" parent="7" vertex="1">
                    <mxGeometry x="1060" width="750" height="118" as="geometry">
                        <mxRectangle width="750" height="118" as="alternateBounds"/>
                    </mxGeometry>
                </mxCell>
                <mxCell id="9" value="" style="swimlane;swimlaneHead=0;swimlaneBody=0;fontStyle=0;connectable=0;fillColor=none;startSize=0;collapsible=0;recursiveResize=0;expand=0;fontStyle=1;" parent="7" vertex="1">
                    <mxGeometry x="1810" width="820" height="118" as="geometry">
                        <mxRectangle width="820" height="118" as="alternateBounds"/>
                    </mxGeometry>
                </mxCell>
                <mxCell id="10" value="" style="swimlane;swimlaneHead=0;swimlaneBody=0;fontStyle=0;connectable=0;fillColor=none;startSize=0;collapsible=0;recursiveResize=0;expand=0;fontStyle=1;" parent="7" vertex="1">
                    <mxGeometry x="2630" width="910" height="118" as="geometry">
                        <mxRectangle width="910" height="118" as="alternateBounds"/>
                    </mxGeometry>
                </mxCell>
                <mxCell id="291" value="" style="rounded=1;whiteSpace=wrap;html=1;" parent="10" vertex="1">
                    <mxGeometry x="640" y="34.19999999999999" width="94" height="49.6" as="geometry"/>
                </mxCell>
                <mxCell id="292" value="Criterios de aceptación" style="text;html=1;strokeColor=none;fillColor=none;align=center;verticalAlign=middle;whiteSpace=wrap;rounded=0;" parent="10" vertex="1">
                    <mxGeometry x="657" y="43.99999999999994" width="60" height="30" as="geometry"/>
                </mxCell>
                <mxCell id="293" style="edgeStyle=none;html=1;strokeColor=default;strokeWidth=1;endArrow=classic;endFill=1;" parent="10" edge="1">
                    <mxGeometry relative="1" as="geometry">
                        <mxPoint x="740" y="58.62068965517233" as="sourcePoint"/>
                        <mxPoint x="810" y="58.13793103448279" as="targetPoint"/>
                    </mxGeometry>
                </mxCell>
                <mxCell id="294" value="" style="html=1;verticalLabelPosition=bottom;align=center;labelBackgroundColor=#ffffff;verticalAlign=top;strokeWidth=2;strokeColor=#0080F0;shadow=0;dashed=0;shape=mxgraph.ios7.icons.document;" parent="10" vertex="1">
                    <mxGeometry x="820" y="39" width="30" height="40" as="geometry"/>
                </mxCell>
                <mxCell id="11" value="Programador" style="shape=tableRow;horizontal=0;startSize=40;swimlaneHead=0;swimlaneBody=0;top=0;left=0;bottom=0;right=0;dropTarget=0;fillColor=none;collapsible=0;recursiveResize=0;expand=0;fontStyle=1;" parent="2" vertex="1">
                    <mxGeometry y="294" width="3540" height="121" as="geometry"/>
                </mxCell>
                <mxCell id="17" style="swimlane;swimlaneHead=0;swimlaneBody=0;fontStyle=0;connectable=0;fillColor=none;startSize=0;collapsible=0;recursiveResize=0;expand=0;fontStyle=1;" parent="11" vertex="1">
                    <mxGeometry x="40" width="1020" height="121" as="geometry">
                        <mxRectangle width="1020" height="121" as="alternateBounds"/>
                    </mxGeometry>
                </mxCell>
                <mxCell id="12" value="" style="swimlane;swimlaneHead=0;swimlaneBody=0;fontStyle=0;connectable=0;fillColor=none;startSize=0;collapsible=0;recursiveResize=0;expand=0;fontStyle=1;" parent="11" vertex="1">
                    <mxGeometry x="1060" width="750" height="121" as="geometry">
                        <mxRectangle width="750" height="121" as="alternateBounds"/>
                    </mxGeometry>
                </mxCell>
                <mxCell id="272" value="" style="rounded=1;whiteSpace=wrap;html=1;" parent="12" vertex="1">
                    <mxGeometry x="30" y="36.400000000000006" width="94" height="49.6" as="geometry"/>
                </mxCell>
                <mxCell id="273" value="Diseño simple" style="text;html=1;strokeColor=none;fillColor=none;align=center;verticalAlign=middle;whiteSpace=wrap;rounded=0;" parent="12" vertex="1">
                    <mxGeometry x="47" y="46.19999999999996" width="60" height="30" as="geometry"/>
                </mxCell>
                <mxCell id="274" value="" style="html=1;verticalLabelPosition=bottom;align=center;labelBackgroundColor=#ffffff;verticalAlign=top;strokeWidth=2;strokeColor=#0080F0;shadow=0;dashed=0;shape=mxgraph.ios7.icons.document;" parent="12" vertex="1">
                    <mxGeometry x="200" y="15.99999999999999" width="30" height="40" as="geometry"/>
                </mxCell>
                <mxCell id="275" value="" style="endArrow=classic;html=1;" parent="12" edge="1">
                    <mxGeometry width="50" height="50" relative="1" as="geometry">
                        <mxPoint x="130" y="61.10000000000002" as="sourcePoint"/>
                        <mxPoint x="190" y="61.10000000000002" as="targetPoint"/>
                    </mxGeometry>
                </mxCell>
                <mxCell id="304" value="- Tarjetas CRC&lt;br&gt;- Diagrama de clases" style="text;html=1;strokeColor=none;fillColor=none;align=center;verticalAlign=middle;whiteSpace=wrap;rounded=0;" parent="12" vertex="1">
                    <mxGeometry x="170" y="75.5" width="90" height="30" as="geometry"/>
                </mxCell>
                <mxCell id="339" value="" style="rounded=1;whiteSpace=wrap;html=1;" vertex="1" parent="12">
                    <mxGeometry x="293" y="-89.3" width="94" height="175.3" as="geometry"/>
                </mxCell>
                <mxCell id="340" value="Prototipos" style="text;html=1;strokeColor=none;fillColor=none;align=center;verticalAlign=middle;whiteSpace=wrap;rounded=0;" vertex="1" parent="12">
                    <mxGeometry x="310" y="-79.3" width="60" height="155.5" as="geometry"/>
                </mxCell>
                <mxCell id="341" value="" style="html=1;verticalLabelPosition=bottom;align=center;labelBackgroundColor=#ffffff;verticalAlign=top;strokeWidth=2;strokeColor=#0080F0;shadow=0;dashed=0;shape=mxgraph.ios7.icons.document;" vertex="1" parent="12">
                    <mxGeometry x="440" y="40.5" width="30" height="40" as="geometry"/>
                </mxCell>
                <mxCell id="342" value="" style="endArrow=classic;html=1;" edge="1" parent="12">
                    <mxGeometry width="50" height="50" relative="1" as="geometry">
                        <mxPoint x="393" y="61.09999999999992" as="sourcePoint"/>
                        <mxPoint x="430" y="61" as="targetPoint"/>
                    </mxGeometry>
                </mxCell>
                <mxCell id="343" value="" style="endArrow=classic;html=1;" edge="1" parent="12">
                    <mxGeometry width="50" height="50" relative="1" as="geometry">
                        <mxPoint x="250" y="60.69999999999992" as="sourcePoint"/>
                        <mxPoint x="283" y="60.7" as="targetPoint"/>
                    </mxGeometry>
                </mxCell>
                <mxCell id="359" style="edgeStyle=none;html=1;strokeColor=default;strokeWidth=1;endArrow=classic;endFill=1;" edge="1" parent="12">
                    <mxGeometry relative="1" as="geometry">
                        <mxPoint x="630" y="60" as="sourcePoint"/>
                        <mxPoint x="670" y="59.63793103448279" as="targetPoint"/>
                    </mxGeometry>
                </mxCell>
                <mxCell id="360" value="" style="html=1;verticalLabelPosition=bottom;align=center;labelBackgroundColor=#ffffff;verticalAlign=top;strokeWidth=2;strokeColor=#0080F0;shadow=0;dashed=0;shape=mxgraph.ios7.icons.document;" vertex="1" parent="12">
                    <mxGeometry x="693" y="40.5" width="30" height="40" as="geometry"/>
                </mxCell>
                <mxCell id="361" value="" style="rounded=1;whiteSpace=wrap;html=1;" vertex="1" parent="12">
                    <mxGeometry x="520" y="35.69999999999999" width="94" height="49.6" as="geometry"/>
                </mxCell>
                <mxCell id="362" value="Diagrama conceptual" style="text;html=1;strokeColor=none;fillColor=none;align=center;verticalAlign=middle;whiteSpace=wrap;rounded=0;" vertex="1" parent="12">
                    <mxGeometry x="537" y="45.49999999999994" width="60" height="30" as="geometry"/>
                </mxCell>
                <mxCell id="13" value="" style="swimlane;swimlaneHead=0;swimlaneBody=0;fontStyle=0;connectable=0;fillColor=none;startSize=0;collapsible=0;recursiveResize=0;expand=0;fontStyle=1;" parent="11" vertex="1">
                    <mxGeometry x="1810" width="820" height="121" as="geometry">
                        <mxRectangle width="820" height="121" as="alternateBounds"/>
                    </mxGeometry>
                </mxCell>
                <mxCell id="99" style="edgeStyle=none;html=1;strokeColor=default;strokeWidth=1;endArrow=classic;endFill=1;" parent="13" edge="1">
                    <mxGeometry relative="1" as="geometry">
                        <mxPoint x="410" y="64.92068965517232" as="sourcePoint"/>
                        <mxPoint x="480" y="64.43793103448279" as="targetPoint"/>
                    </mxGeometry>
                </mxCell>
                <mxCell id="281" value="" style="html=1;verticalLabelPosition=bottom;align=center;labelBackgroundColor=#ffffff;verticalAlign=top;strokeWidth=2;strokeColor=#0080F0;shadow=0;dashed=0;shape=mxgraph.ios7.icons.document;" parent="13" vertex="1">
                    <mxGeometry x="490" y="45.3" width="30" height="40" as="geometry"/>
                </mxCell>
                <mxCell id="284" value="" style="rounded=1;whiteSpace=wrap;html=1;" parent="13" vertex="1">
                    <mxGeometry x="310" y="40.499999999999986" width="94" height="49.6" as="geometry"/>
                </mxCell>
                <mxCell id="285" value="Programación" style="text;html=1;strokeColor=none;fillColor=none;align=center;verticalAlign=middle;whiteSpace=wrap;rounded=0;" parent="13" vertex="1">
                    <mxGeometry x="327" y="50.29999999999994" width="60" height="30" as="geometry"/>
                </mxCell>
                <mxCell id="309" value="Código" style="text;html=1;strokeColor=none;fillColor=none;align=center;verticalAlign=middle;whiteSpace=wrap;rounded=0;" parent="13" vertex="1">
                    <mxGeometry x="475" y="90.10000000000001" width="60" height="30" as="geometry"/>
                </mxCell>
                <mxCell id="310" style="edgeStyle=none;html=1;strokeColor=default;strokeWidth=1;endArrow=classic;endFill=1;" parent="13" edge="1">
                    <mxGeometry relative="1" as="geometry">
                        <mxPoint x="137" y="60.12068965517233" as="sourcePoint"/>
                        <mxPoint x="207" y="59.63793103448279" as="targetPoint"/>
                    </mxGeometry>
                </mxCell>
                <mxCell id="311" value="" style="html=1;verticalLabelPosition=bottom;align=center;labelBackgroundColor=#ffffff;verticalAlign=top;strokeWidth=2;strokeColor=#0080F0;shadow=0;dashed=0;shape=mxgraph.ios7.icons.document;" parent="13" vertex="1">
                    <mxGeometry x="230" y="40.5" width="30" height="40" as="geometry"/>
                </mxCell>
                <mxCell id="312" value="" style="rounded=1;whiteSpace=wrap;html=1;" parent="13" vertex="1">
                    <mxGeometry x="37" y="35.69999999999999" width="94" height="49.6" as="geometry"/>
                </mxCell>
                <mxCell id="313" value="Estándares de Programación" style="text;html=1;strokeColor=none;fillColor=none;align=center;verticalAlign=middle;whiteSpace=wrap;rounded=0;" parent="13" vertex="1">
                    <mxGeometry x="54" y="45.49999999999994" width="60" height="30" as="geometry"/>
                </mxCell>
                <mxCell id="344" value="" style="endArrow=classic;html=1;" edge="1" parent="13">
                    <mxGeometry width="50" height="50" relative="1" as="geometry">
                        <mxPoint x="-10" y="60.36999999999989" as="sourcePoint"/>
                        <mxPoint x="23" y="60.370000000000005" as="targetPoint"/>
                    </mxGeometry>
                </mxCell>
                <mxCell id="350" style="edgeStyle=none;html=1;strokeColor=default;strokeWidth=1;endArrow=classic;endFill=1;" edge="1" parent="13">
                    <mxGeometry relative="1" as="geometry">
                        <mxPoint x="680" y="69.7206896551723" as="sourcePoint"/>
                        <mxPoint x="750" y="69.23793103448276" as="targetPoint"/>
                    </mxGeometry>
                </mxCell>
                <mxCell id="351" value="" style="html=1;verticalLabelPosition=bottom;align=center;labelBackgroundColor=#ffffff;verticalAlign=top;strokeWidth=2;strokeColor=#0080F0;shadow=0;dashed=0;shape=mxgraph.ios7.icons.document;" vertex="1" parent="13">
                    <mxGeometry x="760" y="50.10000000000002" width="30" height="40" as="geometry"/>
                </mxCell>
                <mxCell id="352" value="" style="rounded=1;whiteSpace=wrap;html=1;" vertex="1" parent="13">
                    <mxGeometry x="580" y="45.30000000000001" width="94" height="49.6" as="geometry"/>
                </mxCell>
                <mxCell id="353" value="Refactorización" style="text;html=1;strokeColor=none;fillColor=none;align=center;verticalAlign=middle;whiteSpace=wrap;rounded=0;" vertex="1" parent="13">
                    <mxGeometry x="597" y="55.099999999999966" width="60" height="30" as="geometry"/>
                </mxCell>
                <mxCell id="14" value="" style="swimlane;swimlaneHead=0;swimlaneBody=0;fontStyle=0;connectable=0;fillColor=none;startSize=0;collapsible=0;recursiveResize=0;expand=0;fontStyle=1;" parent="11" vertex="1">
                    <mxGeometry x="2630" width="910" height="121" as="geometry">
                        <mxRectangle width="910" height="121" as="alternateBounds"/>
                    </mxGeometry>
                </mxCell>
                <mxCell id="290" value="" style="html=1;verticalLabelPosition=bottom;align=center;labelBackgroundColor=#ffffff;verticalAlign=top;strokeWidth=2;strokeColor=#0080F0;shadow=0;dashed=0;shape=mxgraph.ios7.icons.document;" parent="14" vertex="1">
                    <mxGeometry x="320" y="26" width="30" height="40" as="geometry"/>
                </mxCell>
                <mxCell id="325" value="" style="rounded=1;whiteSpace=wrap;html=1;" parent="14" vertex="1">
                    <mxGeometry x="420" y="-70" width="94" height="211.45" as="geometry"/>
                </mxCell>
                <mxCell id="326" value="Pruebas funcionales" style="text;html=1;strokeColor=none;fillColor=none;align=center;verticalAlign=middle;whiteSpace=wrap;rounded=0;" parent="14" vertex="1">
                    <mxGeometry x="425.5" y="-50" width="83" height="181.65" as="geometry"/>
                </mxCell>
                <mxCell id="327" style="edgeStyle=none;html=1;strokeColor=default;strokeWidth=1;endArrow=classic;endFill=1;" parent="14" edge="1">
                    <mxGeometry relative="1" as="geometry">
                        <mxPoint x="530" y="45.62068965517233" as="sourcePoint"/>
                        <mxPoint x="600" y="45.13793103448279" as="targetPoint"/>
                    </mxGeometry>
                </mxCell>
                <mxCell id="328" value="" style="html=1;verticalLabelPosition=bottom;align=center;labelBackgroundColor=#ffffff;verticalAlign=top;strokeWidth=2;strokeColor=#0080F0;shadow=0;dashed=0;shape=mxgraph.ios7.icons.document;" parent="14" vertex="1">
                    <mxGeometry x="610" y="26" width="30" height="40" as="geometry"/>
                </mxCell>
                <mxCell id="329" style="edgeStyle=none;html=1;strokeColor=default;strokeWidth=1;endArrow=classic;endFill=1;" parent="14" edge="1">
                    <mxGeometry relative="1" as="geometry">
                        <mxPoint x="360" y="46.24068965517233" as="sourcePoint"/>
                        <mxPoint x="410" y="45.75999999999999" as="targetPoint"/>
                    </mxGeometry>
                </mxCell>
                <mxCell id="286" value="" style="rounded=1;whiteSpace=wrap;html=1;" parent="14" vertex="1">
                    <mxGeometry x="70" y="86" width="140" height="61.3" as="geometry"/>
                </mxCell>
                <mxCell id="287" value="Pruebas unitarias" style="text;html=1;strokeColor=none;fillColor=none;align=center;verticalAlign=middle;whiteSpace=wrap;rounded=0;" parent="14" vertex="1">
                    <mxGeometry x="83.88" y="105.25" width="112.25" height="26.4" as="geometry"/>
                </mxCell>
                <mxCell id="349" style="edgeStyle=none;html=1;" edge="1" parent="14">
                    <mxGeometry relative="1" as="geometry">
                        <mxPoint x="310" y="49" as="targetPoint"/>
                        <mxPoint x="230" y="101" as="sourcePoint"/>
                        <Array as="points">
                            <mxPoint x="290" y="101"/>
                            <mxPoint x="290" y="49"/>
                        </Array>
                    </mxGeometry>
                </mxCell>
                <mxCell id="18" value="Tester" style="shape=tableRow;horizontal=0;startSize=40;swimlaneHead=0;swimlaneBody=0;top=0;left=0;bottom=0;right=0;dropTarget=0;fillColor=none;collapsible=0;recursiveResize=0;expand=0;fontStyle=1;" parent="2" vertex="1">
                    <mxGeometry y="415" width="3540" height="121" as="geometry"/>
                </mxCell>
                <mxCell id="19" style="swimlane;swimlaneHead=0;swimlaneBody=0;fontStyle=0;connectable=0;fillColor=none;startSize=0;collapsible=0;recursiveResize=0;expand=0;fontStyle=1;" parent="18" vertex="1">
                    <mxGeometry x="40" width="1020" height="121" as="geometry">
                        <mxRectangle width="1020" height="121" as="alternateBounds"/>
                    </mxGeometry>
                </mxCell>
                <mxCell id="20" style="swimlane;swimlaneHead=0;swimlaneBody=0;fontStyle=0;connectable=0;fillColor=none;startSize=0;collapsible=0;recursiveResize=0;expand=0;fontStyle=1;" parent="18" vertex="1">
                    <mxGeometry x="1060" width="750" height="121" as="geometry">
                        <mxRectangle width="750" height="121" as="alternateBounds"/>
                    </mxGeometry>
                </mxCell>
                <mxCell id="21" style="swimlane;swimlaneHead=0;swimlaneBody=0;fontStyle=0;connectable=0;fillColor=none;startSize=0;collapsible=0;recursiveResize=0;expand=0;fontStyle=1;" parent="18" vertex="1">
                    <mxGeometry x="1810" width="820" height="121" as="geometry">
                        <mxRectangle width="820" height="121" as="alternateBounds"/>
                    </mxGeometry>
                </mxCell>
                <mxCell id="22" style="swimlane;swimlaneHead=0;swimlaneBody=0;fontStyle=0;connectable=0;fillColor=none;startSize=0;collapsible=0;recursiveResize=0;expand=0;fontStyle=1;" parent="18" vertex="1">
                    <mxGeometry x="2630" width="910" height="121" as="geometry">
                        <mxRectangle width="910" height="121" as="alternateBounds"/>
                    </mxGeometry>
                </mxCell>
                <mxCell id="338" style="edgeStyle=none;html=1;entryX=0;entryY=0.5;entryDx=0;entryDy=0;" edge="1" parent="2" source="337" target="272">
                    <mxGeometry relative="1" as="geometry">
                        <Array as="points">
                            <mxPoint x="900" y="355"/>
                        </Array>
                    </mxGeometry>
                </mxCell>
                <mxCell id="336" style="edgeStyle=none;html=1;" edge="1" parent="1" source="194">
                    <mxGeometry relative="1" as="geometry">
                        <mxPoint x="1340" y="-0.7999999999999545" as="targetPoint"/>
                    </mxGeometry>
                </mxCell>
                <mxCell id="363" style="edgeStyle=none;html=1;" edge="1" parent="1" source="341">
                    <mxGeometry relative="1" as="geometry">
                        <mxPoint x="2200" y="235" as="targetPoint"/>
                    </mxGeometry>
                </mxCell>
                <mxCell id="364" style="edgeStyle=none;html=1;" edge="1" parent="1" source="311">
                    <mxGeometry relative="1" as="geometry">
                        <mxPoint x="2740" y="234.5" as="targetPoint"/>
                    </mxGeometry>
                </mxCell>
                <mxCell id="365" style="edgeStyle=none;html=1;" edge="1" parent="1" source="281">
                    <mxGeometry relative="1" as="geometry">
                        <mxPoint x="3010" y="239.29999999999995" as="targetPoint"/>
                    </mxGeometry>
                </mxCell>
                <mxCell id="366" style="edgeStyle=none;html=1;" edge="1" parent="1" source="351">
                    <mxGeometry relative="1" as="geometry">
                        <mxPoint x="3320" y="280" as="targetPoint"/>
                        <Array as="points">
                            <mxPoint x="3300" y="244"/>
                        </Array>
                    </mxGeometry>
                </mxCell>
                <mxCell id="367" style="edgeStyle=none;html=1;" edge="1" parent="1" source="328">
                    <mxGeometry relative="1" as="geometry">
                        <mxPoint x="3950" y="150" as="targetPoint"/>
                        <Array as="points">
                            <mxPoint x="3950" y="220"/>
                        </Array>
                    </mxGeometry>
                </mxCell>
            </root>
        </mxGraphModel>
    </diagram>
</mxfile>